<?xml version="1.0" encoding="UTF-8"?> <svg xmlns="http://www.w3.org/2000/svg" id="Layer_1" data-name="Layer 1" viewBox="0 0 344.39 154.77"> <defs> <style>.cls-1{fill:#fff;}</style> </defs> <path class="cls-1" d="M168.72,87.74h5.41V99.85H178l7-12.11h5.87l-8.43,14.16V102l8.93,15.51h-6.12l-7.25-13h-3.85v13h-5.41Zm34.75,7.88c6.53,0,11.77,4.65,11.77,11.18S210,118,203.51,118s-11.73-4.61-11.73-11.19S197,95.62,203.47,95.62Zm0,17.85a6.67,6.67,0,1,0-6.33-6.67A6.37,6.37,0,0,0,203.51,113.47Zm16-17.35h5.07V113h6.66V96.12h5.07V113H243V96.12H248v21.37H219.51Zm43.79-.5c6.12,0,9.47,4.48,9.47,10.13a15.75,15.75,0,0,1-.17,2.06H257.9c.33,3.73,3.18,5.66,6.41,5.66a10.13,10.13,0,0,0,6.12-2.35l2.09,3.81a13.51,13.51,0,0,1-8.59,3.06c-7.08,0-11.52-5.11-11.52-11.19C252.41,100.22,256.89,95.62,263.3,95.62Zm4.15,8.54c0-2.85-1.89-4.52-4.27-4.52a5.13,5.13,0,0,0-5.16,4.52Zm7.84,8.84c2.64-.37,4.48-2.59,4.48-10.18v-6.7h15.59v21.37H290V100.43h-5.2v2.39c0,9.3-2.47,14.67-9.55,14.88Zm35.29-17.38c6.11,0,9.47,4.48,9.47,10.13a17.7,17.7,0,0,1-.17,2.06H305.17a6.06,6.06,0,0,0,6.41,5.66,10.13,10.13,0,0,0,6.12-2.35l2.1,3.81a13.53,13.53,0,0,1-8.59,3.06c-7.09,0-11.53-5.11-11.53-11.19C299.68,100.22,304.17,95.62,310.58,95.62Zm4.15,8.54c-.05-2.85-1.89-4.52-4.28-4.52a5.12,5.12,0,0,0-5.15,4.52Zm9.8-8h5.32v8.17h2.6l5.19-8.17h5.91l-6.79,10.18v.08l7.63,11.11h-6.16l-5.61-8.68h-2.77v8.68h-5.32ZM243.37,22.79V73.32A1.37,1.37,0,0,1,242,74.69H231.68a1.37,1.37,0,0,1-1.38-1.37V22.79a1.37,1.37,0,0,1,1.38-1.37H242A1.37,1.37,0,0,1,243.37,22.79Zm80.43-1.37H312.25a1.36,1.36,0,0,0-1.31,1L301.8,52.24,291.75,22.35a1.37,1.37,0,0,0-1.3-.93h-8.06a1.38,1.38,0,0,0-1.3.93l-10,29.89-9.14-29.85a1.37,1.37,0,0,0-1.32-1H249.05a1.37,1.37,0,0,0-1.12.57,1.33,1.33,0,0,0-.19,1.22l17,50.56a1.37,1.37,0,0,0,1.3.93h9.16a1.38,1.38,0,0,0,1.31-.93l9.94-29.54,9.95,29.54a1.37,1.37,0,0,0,1.3.93h9.17a1.38,1.38,0,0,0,1.3-.93l17-50.56a1.33,1.33,0,0,0-.19-1.22A1.35,1.35,0,0,0,323.8,21.42Zm17.37,0H330.85a1.37,1.37,0,0,0-1.38,1.37V73.32a1.37,1.37,0,0,0,1.38,1.37h10.32a1.37,1.37,0,0,0,1.37-1.37V22.79A1.37,1.37,0,0,0,341.17,21.42ZM224.33,73a1,1,0,0,1-.8,1.74H210.88a1.73,1.73,0,0,1-1.33-.63l-2.14-2.58a27.92,27.92,0,1,1,8.34-8.36ZM199.26,61.7,193.72,55a1.08,1.08,0,0,1,.83-1.76h11.59a16.42,16.42,0,0,0,.86-5.22c0-8.35-6.21-15.55-14.74-15.55s-14.74,7.2-14.74,15.55,6.22,15.44,14.74,15.44A14.28,14.28,0,0,0,199.26,61.7ZM119,97.46a2.16,2.16,0,0,0-2.87.81c-.75,1.38-.19,4.11,1.33,6.49s2.86,3.64,3.9,3.64,1.91-1.25,1.46-4.27C122.58,102.33,121.58,98.42,119,97.46Zm-15.26,11.26a4,4,0,0,0-3.25,1.36c-1.82,2.24-1,6.19,1.78,8.62a7.32,7.32,0,0,0,4.69,1.69,5,5,0,0,0,4.11-1.84c1.62-2.17.69-5.25-2.38-7.84A7.8,7.8,0,0,0,103.77,108.72ZM68.83,137.66a68.81,68.81,0,1,1,59.08-33.5.41.41,0,0,1-.76-.17C124.79,87.08,114.45,77.76,99.41,75c-1.3-.24-1.55-1,.18-1.19a67.93,67.93,0,0,1,14.45.27,46.25,46.25,0,0,0,.29-5.29,45.5,45.5,0,1,0-45.5,45.5c.71,0,1.43,0,2.14,0h0a61.19,61.19,0,0,1-.86-12.3c.11-2.78.68-3.16,1.93-1,6.29,10.85,15.33,20.74,32.89,24.61,14.36,3.16,28.76,6.91,44.33,26.56,1.38,1.75-.73,3.49-2.31,2.09-15.85-14-30.16-18.56-43.35-18.56C88.92,135.7,78.91,137.66,68.83,137.66Z"></path> </svg> 